<?xml version="1.0" encoding="UTF-8"?>
<svg xmlns="http://www.w3.org/2000/svg" xmlns:xlink="http://www.w3.org/1999/xlink" width="46pt" height="26pt" viewBox="0 0 46 26" version="1.1">
    <g id="surface1">
        <path
            style="stroke:none;fill-rule:nonzero;fill:rgb(12.54902%,9.803922%,14.117647%);fill-opacity:1;"
            d="M 12.820312 1.992188 L 4 3.960938 L 4 16.074219 L 3.734375 16.128906 C 3.597656 16.160156 3.191406 16.320312 2.839844 16.488281 C 1.742188 17.019531 1.007812 17.753906 0.480469 18.851562 C 0.113281 19.621094 0 20.125 0 21.011719 C 0 21.902344 0.113281 22.40625 0.480469 23.175781 C 1.007812 24.269531 1.742188 25.007812 2.839844 25.535156 C 3.605469 25.902344 4.109375 26.015625 5 26.015625 C 5.886719 26.015625 6.390625 25.902344 7.15625 25.535156 C 8.429688 24.917969 9.285156 23.949219 9.804688 22.535156 C 9.949219 22.15625 9.957031 21.703125 9.996094 15.417969 L 10.035156 8.703125 L 12.804688 8.085938 C 14.324219 7.75 15.667969 7.445312 15.777344 7.414062 C 15.988281 7.363281 15.996094 7.371094 15.996094 7.707031 L 15.996094 8.054688 L 15.457031 8.230469 C 13.851562 8.75 12.539062 10.148438 12.117188 11.808594 C 11.964844 12.414062 11.964844 13.601562 12.117188 14.207031 C 12.5625 15.976562 14.027344 17.441406 15.792969 17.890625 C 16.402344 18.042969 17.585938 18.042969 18.195312 17.890625 C 19.960938 17.441406 21.425781 15.976562 21.871094 14.207031 C 21.976562 13.800781 21.992188 12.734375 21.992188 6.867188 L 21.992188 0 L 21.816406 0.0078125 C 21.710938 0.015625 17.664062 0.90625 12.820312 1.992188 Z M 12.820312 1.992188 "/>
        <path style=" stroke:none;fill-rule:nonzero;fill:rgb(12.54902%,9.803922%,14.117647%);fill-opacity:1;" d="M 23.992188 3 L 23.992188 6.003906 L 45.984375 6.003906 L 45.984375 0 L 23.992188 0 Z M 23.992188 3 "/>
        <path style=" stroke:none;fill-rule:nonzero;fill:rgb(12.54902%,9.803922%,14.117647%);fill-opacity:1;" d="M 23.992188 13.007812 L 23.992188 16.011719 L 45.984375 16.011719 L 45.984375 10.007812 L 23.992188 10.007812 Z M 23.992188 13.007812 "/>
        <path style=" stroke:none;fill-rule:nonzero;fill:rgb(12.54902%,9.803922%,14.117647%);fill-opacity:1;" d="M 11.996094 23.015625 L 11.996094 26.015625 L 45.984375 26.015625 L 45.984375 20.011719 L 11.996094 20.011719 Z M 11.996094 23.015625 "/>
    </g>
</svg>
